<svg width="25" height="24" viewBox="0 0 25 24" fill="none" xmlns="http://www.w3.org/2000/svg">
<path d="M12.5 0C14.0913 0 15.6174 0.632141 16.7426 1.75736C17.8679 2.88258 18.5 4.4087 18.5 6C18.5 7.5913 17.8679 9.11742 16.7426 10.2426C15.6174 11.3679 14.0913 12 12.5 12C10.9087 12 9.38258 11.3679 8.25736 10.2426C7.13214 9.11742 6.5 7.5913 6.5 6C6.5 4.4087 7.13214 2.88258 8.25736 1.75736C9.38258 0.632141 10.9087 0 12.5 0ZM12.5 15C19.13 15 24.5 17.685 24.5 21V24H0.5V21C0.5 17.685 5.87 15 12.5 15Z" fill="#00591E"/>
</svg>
